# xmcd
#
# Track frame offsets:
#	150
#	19567
#	35185
#	44920
#	54495
#	62637
#	78980
#	87072
#	98185
#	111282
#	122095
#	133092
#	147340
#	161265
#	170112
#	180532
#	193910
#	206127
#	217862
#	227730
#	237670
#	253125
#	264465
#	274812
#	287825
#
# Disc length: 4028 seconds
#
# Revision: 1
# Processed by: cddbd v1.5.1PL2 Copyright (c) Steve Scherf et al.
# Submitted via: audiograbber 1.83.01
#
DISCID=7f0fba19
DTITLE=Wabi Ryvola - 25 pisni
DYEAR=1995
DGENRE=Country
TTITLE0=Vsedni den
TTITLE1=Sestactyricatej
TTITLE2=Song nocniho nabrezi
TTITLE3=Jsem nejkrasnejsi
TTITLE4=Podivnej weekend
TTITLE5=Verim
TTITLE6=Prehlidka ztracenyho casu
TTITLE7=Samota
TTITLE8=Zvlastni znameni woodcraft
TTITLE9=Rychle sipy
TTITLE10=Loudavy navraty
TTITLE11=Obycejny pondeli
TTITLE12=Muj nazor na vec
TTITLE13=Bejt starej chlap
TTITLE14=Dalka
TTITLE15=Hic Sunt Leones
TTITLE16=Vracim se, vracim
TTITLE17=Island
TTITLE18=Hobo a pes
TTITLE19=Dlouha cesta
TTITLE20=Cesta zpatky
TTITLE21=Slet divnejch ptaku
TTITLE22=Mas chut evergreenu
TTITLE23=Letokruhy
TTITLE24=Cas odjezdu
EXTD=
EXTT0=
EXTT1=
EXTT2=
EXTT3=
EXTT4=
EXTT5=
EXTT6=
EXTT7=
EXTT8=
EXTT9=
EXTT10=
EXTT11=
EXTT12=
EXTT13=
EXTT14=
EXTT15=
EXTT16=
EXTT17=
EXTT18=
EXTT19=
EXTT20=
EXTT21=
EXTT22=
EXTT23=
EXTT24=
PLAYORDER=
